<svg width="35" height="34" viewBox="0 0 35 34" fill="none" xmlns="http://www.w3.org/2000/svg">
<path fill-rule="evenodd" clip-rule="evenodd" d="M32.758 11.2936C32.758 8.99102 31.9854 7.10781 30.7029 5.63258C30.9088 5.09802 31.5944 2.95225 30.5045 0.0490241C30.5045 0.0490241 28.8272 -0.517643 25.0079 2.21181C23.4118 1.74336 21.7004 1.50915 20.0004 1.50159C18.3004 1.50915 16.5891 1.74336 14.9949 2.21181C11.1736 -0.517643 9.49442 0.0490241 9.49442 0.0490241C8.40453 2.95225 9.09209 5.09802 9.29797 5.63258C8.0173 7.10781 7.23909 8.99102 7.23909 11.2936C7.23909 19.378 11.9084 21.1876 16.3492 21.7203C16.3492 21.7203 13.157 23.6979 13.157 27.0224C12.018 27.5626 7.19753 29.2172 5.41253 25.9929C5.41253 25.9929 4.35663 23.968 2.34876 23.8188C2.34876 23.8188 0.395633 23.7924 2.21086 25.1014C2.21086 25.1014 3.52176 25.7511 4.43219 28.1878C4.43219 28.1878 5.44463 33.3218 13.0928 31.0155C13.1702 31.0551 13.1211 33.4994 13.1211 33.9999H26.8835C26.8835 33.9999 26.9062 29.0945 26.9062 27.5343C26.9062 23.6979 24.3449 22.3549 23.6252 21.7033C28.0811 21.1819 32.758 19.3988 32.758 11.2936Z" fill="#999999"/>
</svg>
