<svg width="33" height="32" viewBox="0 0 33 32" fill="none" xmlns="http://www.w3.org/2000/svg">
<path d="M9.75338 6.66678C9.75302 7.37402 9.47173 8.05216 8.97139 8.55201C8.47104 9.05185 7.79262 9.33247 7.08538 9.33211C6.37813 9.33176 5.7 9.05047 5.20015 8.55012C4.7003 8.04977 4.41969 7.37136 4.42004 6.66411C4.4204 5.95687 4.70169 5.27873 5.20204 4.77889C5.70238 4.27904 6.3808 3.99843 7.08804 3.99878C7.79529 3.99913 8.47343 4.28042 8.97327 4.78077C9.47312 5.28112 9.75373 5.95954 9.75338 6.66678ZM9.83338 11.3068H4.50004V28.0001H9.83338V11.3068ZM18.26 11.3068H12.9534V28.0001H18.2067V19.2401C18.2067 14.3601 24.5667 13.9068 24.5667 19.2401V28.0001H29.8334V17.4268C29.8334 9.20011 20.42 9.50678 18.2067 13.5468L18.26 11.3068Z" fill="#999999"/>
</svg>
