<svg width="61" height="60" viewBox="0 0 61 60" fill="none" xmlns="http://www.w3.org/2000/svg">
<path fill-rule="evenodd" clip-rule="evenodd" d="M30.5 0C47.069 0 60.5 13.7698 60.5 30.7588C60.5 44.3458 51.914 55.8719 40.001 59.9429C38.48 60.2459 37.94 59.2853 37.94 58.4663C37.94 57.4523 37.976 54.1404 37.976 50.0244C37.976 47.1564 37.016 45.2846 35.939 44.3306C42.62 43.5686 49.64 40.9673 49.64 29.1533C49.64 25.7933 48.476 23.0515 46.55 20.8975C46.862 20.1205 47.891 16.9919 46.256 12.7559C46.256 12.7559 43.742 11.9317 38.015 15.9097C35.618 15.2287 33.05 14.886 30.5 14.874C27.95 14.886 25.385 15.2287 22.991 15.9097C17.258 11.9317 14.738 12.7559 14.738 12.7559C13.109 16.9919 14.138 20.1205 14.447 20.8975C12.53 23.0515 11.357 25.7933 11.357 29.1533C11.357 40.9373 18.362 43.5785 25.025 44.3555C24.167 45.1235 23.39 46.4783 23.12 48.4673C21.41 49.2533 17.066 50.6136 14.39 45.9126C14.39 45.9126 12.803 42.9572 9.791 42.7412C9.791 42.7412 6.866 42.7024 9.587 44.6104C9.587 44.6104 11.552 45.5554 12.917 49.1104C12.917 49.1104 14.678 54.6002 23.024 52.7402C23.039 55.3112 23.066 57.7343 23.066 58.4663C23.066 59.2793 22.514 60.2308 21.017 59.9458C9.09499 55.8808 0.5 44.3488 0.5 30.7588C0.5 13.7698 13.934 0 30.5 0Z" fill="white"/>
</svg>
