<svg width="4440" height="120" viewBox="0 0 4440 120" fill="none" xmlns="http://www.w3.org/2000/svg">
<path fill-rule="evenodd" clip-rule="evenodd" d="M67.9414 52.6657C66.528 53.0614 65.0947 53.4622 63.4357 53.913C62.6254 54.1425 62.4409 54.1946 61.6867 53.2777C60.7822 52.1977 60.1189 51.4991 58.8521 50.8635C55.0526 48.894 51.3735 49.4658 47.9359 51.8167C43.8349 54.612 41.724 58.7415 41.7844 63.8876C41.8444 68.9704 45.1616 73.1636 49.9264 73.8622C54.0274 74.4341 57.465 72.9094 60.1789 69.6694C60.7215 68.9707 61.2045 68.2076 61.8075 67.3185H50.1675C48.9007 67.3185 48.5992 66.4927 49.0215 65.4124C49.8056 63.4429 51.2531 60.1395 52.0972 58.4876C52.2784 58.1062 52.7006 57.471 53.6051 57.471H73.0132C73.8851 54.561 75.2996 51.8115 77.1866 49.2097C81.5895 43.1103 86.8969 39.9337 94.0736 38.5998C100.225 37.4561 106.015 38.0914 111.262 41.8399C116.027 45.2707 118.982 49.9084 119.766 56.0077C120.791 64.5844 118.439 71.5732 112.83 77.5451C108.85 81.8017 103.965 84.4702 98.3557 85.6774C97.2859 85.8859 96.216 85.9849 95.163 86.0824C94.6136 86.1334 94.0687 86.1836 93.531 86.2492C88.0425 86.1221 83.037 84.4702 78.8149 80.6584C75.846 77.9546 73.8011 74.6321 72.7845 70.7644C72.0791 72.2651 71.2357 73.7021 70.251 75.0694C65.9085 81.105 60.2392 84.8535 53.0625 85.8701C47.1517 86.6959 41.6636 85.4887 36.8387 81.6769C32.3757 78.1189 29.8427 73.4175 29.1793 67.5727C28.3952 60.6476 30.3251 54.4215 34.3057 48.9577C38.5879 43.0492 44.2571 39.3007 51.1927 37.9665C56.862 36.8865 62.2897 37.5855 67.1752 41.0797C70.3714 43.3031 72.6634 46.353 74.1712 50.0377C74.5331 50.6096 74.2916 50.9272 73.5679 51.1177C71.4544 51.6832 69.7136 52.1704 67.9414 52.6657ZM107.843 59.9025C107.855 60.1159 107.867 60.3408 107.885 60.582C107.583 66.0457 104.99 70.1119 100.225 72.7166C97.029 74.4319 93.7117 74.6227 90.3949 73.098C86.0524 71.0647 83.7604 66.0457 84.846 61.0901C86.1731 55.1182 89.7915 51.3697 95.4004 50.0355C101.13 48.6379 106.618 52.1955 107.704 58.4854C107.789 58.9354 107.814 59.385 107.843 59.9025Z" fill="#00ACD7"/>
<path d="M9.16726 51.9439C9.04662 52.1344 9.10692 52.2615 9.34816 52.2615L27.3097 52.3253C27.4907 52.3253 27.7922 52.1344 27.9128 51.9439L28.9381 50.292C29.0587 50.1015 28.9984 49.911 28.7572 49.911H11.0972C10.856 49.911 10.5544 50.0381 10.4338 50.2286L9.16726 51.9439Z" fill="#00ACD7"/>
<path d="M0.0603109 57.7886C-0.0603109 57.9791 2.79397e-08 58.1062 0.241243 58.1062L24.8973 58.0429C25.1385 58.0429 25.3798 57.9157 25.4401 57.6615L25.9226 56.1367C25.9829 55.9462 25.8623 55.7557 25.621 55.7557H1.99026C1.74902 55.7557 1.44746 55.8825 1.32684 56.0734L0.0603109 57.7886Z" fill="#00ACD7"/>
<path d="M14.6555 63.5703C14.5349 63.7608 14.5952 63.9513 14.8365 63.9513L24.1133 64.0151C24.2942 64.0151 24.5354 63.8246 24.5354 63.5703L24.656 62.0456C24.656 61.7913 24.5354 61.6008 24.2942 61.6008H16.103C15.8617 61.6008 15.6205 61.7913 15.4999 61.9818L14.6555 63.5703Z" fill="#00ACD7"/>
<path fill-rule="evenodd" clip-rule="evenodd" d="M288.812 7.5C280.572 7.5 273.893 13.967 273.893 21.9444V31.9445H299.713V34.7222H262.418C254.179 34.7222 247.5 41.1893 247.5 49.1666V70.8334C247.5 78.8108 254.179 85.2776 262.418 85.2776H271.025V73.0556C271.025 65.0783 277.704 58.611 285.943 58.611H313.484C320.455 58.611 326.106 53.139 326.106 46.389V21.9444C326.106 13.967 319.428 7.5 311.189 7.5H288.812ZM285.369 25.2778C288.221 25.2778 290.533 23.0392 290.533 20.2778C290.533 17.5164 288.221 15.2778 285.369 15.2778C282.517 15.2778 280.205 17.5164 280.205 20.2778C280.205 23.0392 282.517 25.2778 285.369 25.2778Z" fill="url(#paint0_linear_2187_419)"/>
<path fill-rule="evenodd" clip-rule="evenodd" d="M311.188 112.5C319.427 112.5 326.106 106.033 326.106 98.0557V88.0556H300.286V85.278H337.582C345.821 85.278 352.499 78.8107 352.499 70.8334V49.1666C352.499 41.1892 345.821 34.7223 337.582 34.7223H328.975V46.9444C328.975 54.9221 322.296 61.389 314.057 61.389H286.516C279.544 61.389 273.893 66.861 273.893 73.611V98.0557C273.893 106.033 280.572 112.5 288.811 112.5H311.188ZM314.631 94.7224C311.779 94.7224 309.467 96.9607 309.467 99.7222C309.467 102.484 311.779 104.722 314.631 104.722C317.483 104.722 319.795 102.484 319.795 99.7222C319.795 96.9607 317.483 94.7224 314.631 94.7224Z" fill="url(#paint1_linear_2187_419)"/>
<g clip-path="url(#clip0_2187_419)">
<path d="M532.877 119.923C521.644 119.114 510.542 116.286 503.734 112.501C499.855 110.345 496.901 107.696 495.741 105.334L495.051 103.929V59.8582V15.7873L495.597 14.6789C498.037 9.72632 505.822 5.26154 516.689 2.58263C520.378 1.6732 525.704 0.767549 530.049 0.310863C534.485 -0.155594 546.245 -0.0846259 550.67 0.436003C562.432 1.81789 572.441 4.91159 578.609 9.07199C580.988 10.6764 583.429 13.2436 584.256 15.0107L584.965 16.5257L584.904 60.4634L584.843 104.401L584.274 105.557C583.961 106.193 583.016 107.444 582.173 108.337C577.044 113.774 566.043 117.796 551.613 119.51C548.672 119.859 535.894 120.141 532.877 119.923ZM553.577 82.1604C553.534 82.0477 551.855 80.5519 549.845 78.836C547.836 77.1202 546.106 75.6356 546 75.5371C545.894 75.4385 546.266 75.0896 546.825 74.7616C547.384 74.4337 548.456 73.5213 549.207 72.7342C551.402 70.4324 552.438 67.5891 552.438 63.8647C552.438 60.1982 551.321 57.2399 549.083 54.9817C546.829 52.7054 544.24 51.7274 540.469 51.7274C534.658 51.7274 530.195 55.1185 528.77 60.6162C528.28 62.5072 528.283 66.3283 528.775 68.0051C530.06 72.3788 533.559 75.5554 537.913 76.3013C539.387 76.5537 539.587 76.6625 540.591 77.7609C541.188 78.4137 542.413 79.7166 543.314 80.6564L544.951 82.365H549.303C551.697 82.365 553.62 82.273 553.577 82.1604ZM538.651 69.9744C537.604 69.4281 537.208 69.0042 536.61 67.7895C536.149 66.8514 536.07 66.3178 536.064 64.1004C536.059 61.8473 536.131 61.3605 536.613 60.3821C537.401 58.7811 538.488 58.0233 540.168 57.9017C542.507 57.732 543.858 58.8801 544.565 61.6391C545.433 65.0217 544.479 68.618 542.397 69.8115C541.305 70.4377 539.676 70.5086 538.651 69.9744ZM519.36 76.2533C523.923 75.3879 526.514 72.7343 526.514 68.9249C526.514 65.5454 524.841 63.5762 520.219 61.5129C517.574 60.3317 516.615 59.5904 516.615 58.7241C516.615 58.0062 517.525 57.2194 518.584 57.0218C519.617 56.8287 522.359 57.305 523.978 57.959L525.335 58.5072V55.5031V52.4989L523.862 52.1721C522.952 51.9701 521.039 51.849 518.854 51.8552C515.759 51.8552 515.154 51.9306 513.989 52.3931C510.587 53.7436 508.973 56.0442 508.998 59.5048C509.023 62.7444 510.732 64.7653 514.985 66.5832C517.495 67.6559 518.501 68.4727 518.501 69.4379C518.501 71.489 515.083 71.7415 511.465 69.9576C510.474 69.4691 509.583 69.0295 509.486 68.9809C509.389 68.9322 509.31 70.3355 509.31 72.0994C509.31 75.2921 509.313 75.3075 509.891 75.5276C512.068 76.3552 516.879 76.7239 519.36 76.2533ZM571.527 73.2916V70.5814H567.403H563.279V61.2722V51.9631H559.626H555.973V63.9825V76.0018H563.75H571.527V73.2916ZM546.075 25.7973C553.334 25.2938 558.775 24.3432 563.563 22.7422C568.334 21.1473 571.152 19.2173 571.782 17.1136C572.025 16.3029 572.007 15.9954 571.668 15.1065C570.146 11.1217 561.645 8.06006 548.654 6.81875C543.097 6.28766 532.991 6.45983 527.692 7.17554C519.608 8.26788 513.047 10.2969 510.129 12.6069C504.228 17.28 510.469 22.4198 524.982 24.839C531.275 25.888 539.428 26.2584 546.075 25.7973Z" fill="#00BCF2"/>
</g>
<path d="M735.053 56.16C737.174 56.1934 739.245 55.5089 740.929 54.2175C742.486 52.9135 743.551 51.1169 743.948 49.125C744.571 45.4796 744.84 41.7823 744.75 38.085C744.78 32.8725 744.874 29.4388 745.031 27.7838C745.198 25.6037 745.728 23.4668 746.599 21.4613C747.263 20.0031 748.228 18.7021 749.43 17.6438C750.698 16.6187 752.171 15.8771 753.75 15.4688C755.656 15.0912 757.599 14.934 759.54 15H762.165V22.35H760.714C758.413 22.0572 756.09 22.6883 754.253 24.105C752.893 26.4811 752.334 29.2317 752.659 31.95C752.784 37.1218 752.613 42.2966 752.145 47.4488C751.805 50.2141 750.818 52.8604 749.265 55.1738C747.547 57.2649 745.357 58.9188 742.875 60C746.073 61.226 748.724 63.5603 750.345 66.5775C752.188 71.1756 752.98 76.1277 752.663 81.0713C752.663 87.1588 752.725 90.7838 752.85 91.9463C752.898 93.6083 753.573 95.1905 754.74 96.375C756.547 97.4146 758.637 97.8569 760.71 97.6388H762.161V105H759.536C757.295 105.103 755.05 104.85 752.888 104.25C750.942 103.569 749.223 102.362 747.923 100.763C746.54 98.9899 745.659 96.8792 745.369 94.65C744.892 90.6259 744.685 86.5743 744.75 82.5225C744.851 78.6234 744.582 74.7235 743.948 70.875C743.545 68.8825 742.481 67.0842 740.929 65.7713C739.251 64.4663 737.178 63.773 735.053 63.8063V56.16Z" fill="#F5DE19"/>
<path d="M824.947 63.7912C822.822 63.758 820.749 64.4512 819.071 65.7562C817.519 67.0691 816.455 68.8674 816.052 70.86C815.419 74.7123 815.153 78.6161 815.257 82.5187C815.317 86.5708 815.106 90.6224 814.624 94.6462C814.334 96.8754 813.452 98.9861 812.07 100.759C810.769 102.358 809.051 103.566 807.105 104.246C804.942 104.846 802.698 105.1 800.456 104.996H797.831V97.65H799.282C801.356 97.8681 803.445 97.4258 805.252 96.3862C806.426 95.1982 807.105 93.6083 807.15 91.9387C807.275 90.7837 807.337 87.1587 807.337 81.0637C807.02 76.1201 807.812 71.1681 809.655 66.57C811.277 63.5556 813.928 61.2241 817.125 60C814.649 58.9178 812.465 57.2653 810.75 55.1774C809.197 52.8641 808.21 50.2178 807.87 47.4525C807.402 42.3003 807.231 37.1255 807.356 31.9537C807.681 29.2354 807.122 26.4848 805.762 24.1087C803.926 22.692 801.602 22.0609 799.301 22.3537H797.85V14.9999H800.475C802.411 14.935 804.349 15.0923 806.25 15.4687C807.825 15.8796 809.294 16.6225 810.559 17.6474C811.761 18.7057 812.726 20.0068 813.39 21.4649C814.261 23.4705 814.79 25.6074 814.957 27.7874C815.112 29.4424 815.206 32.8762 815.239 38.0887C815.145 41.7895 815.412 45.4906 816.034 49.14C816.433 51.1277 817.497 52.92 819.052 54.2212C820.736 55.5126 822.807 56.1971 824.929 56.1637L824.947 63.7912Z" fill="#F5DE19"/>
<path d="M1019.98 12.075L1061.12 36.3749L1061.08 83.625L1020 107.925L978.892 84.03L978.877 36.105L1019.98 12.075Z" fill="white"/>
<path d="M1020 7.5L974.951 33.825V86.325L1020 112.5L1065 85.875L1065.05 34.125L1020 7.5ZM1061.08 83.625L1020 107.925L978.892 84.03V36.105L1020 12.075L1061.12 36.375L1061.08 83.625Z" fill="#171C1E"/>
<path d="M1055.88 51.2025L1034.8 63.615L1034.79 93.3375L1055.96 80.8688L1055.88 51.2025Z" fill="#1EA8FF"/>
<path d="M1047.31 46.1362L1055.88 51.2025L1034.8 63.615L1034.79 93.3375L1024.98 87.6375L1025.05 59.5312L1047.31 46.1362Z" fill="#50BFFF"/>
<path d="M1044.42 38.8125L1044.43 44.31L1021.54 58.1175L1021.57 88.4887L1016.24 91.6162L1016.23 55.71L1044.42 38.8125Z" fill="#97FF27"/>
<path d="M1035.03 33.2662L1044.42 38.8125L1016.23 55.71L1016.24 91.6162L1005.73 85.5037L1005.71 50.2987L1035.03 33.2662Z" fill="#C2FF72"/>
<path d="M1032.1 24.7725V31.4025L1002.04 49.0275V86.895L996.78 89.955L996.881 46.0387L1032.1 24.7725Z" fill="#FF274B"/>
<path d="M1020.6 17.9399L984.488 38.9774L984.484 82.7662L996.851 89.9549L996.881 46.0387L1032.13 24.7724L1020.6 17.9399Z" fill="#FF5C77"/>
<g clip-path="url(#clip1_2187_419)">
<path d="M1302 0H1218C1208.06 0 1200 8.05888 1200 18V102C1200 111.941 1208.06 120 1218 120H1302C1311.94 120 1320 111.941 1320 102V18C1320 8.05888 1311.94 0 1302 0Z" fill="#F7DF1E"/>
<path d="M1275.94 86.7188C1278.28 90.7031 1281.56 93.5156 1286.95 93.5156C1291.64 93.5156 1294.69 91.1719 1294.69 87.8906C1294.69 84.1406 1291.64 82.7344 1286.48 80.3906L1283.67 79.2188C1275.47 75.7031 1270.08 71.4844 1270.08 62.3438C1270.08 53.9062 1276.41 47.3438 1286.48 47.3438C1293.75 47.3438 1298.91 49.9219 1302.42 56.4844L1293.75 62.1094C1291.88 58.5938 1289.77 57.1875 1286.48 57.1875C1283.2 57.1875 1281.09 59.2969 1281.09 62.1094C1281.09 65.3906 1283.2 66.7969 1288.12 68.9062L1290.94 70.0781C1300.55 74.2969 1305.94 78.2812 1305.94 87.8906C1305.94 97.9688 1297.97 103.594 1287.19 103.594C1276.64 103.594 1269.84 98.6719 1266.56 92.1094L1275.94 86.7188ZM1236.09 87.6562C1237.97 90.7031 1239.38 93.5156 1243.36 93.5156C1247.11 93.5156 1249.45 92.1094 1249.45 86.4844V47.5781H1260.7V86.0156C1260.7 97.7344 1253.91 102.891 1243.83 102.891C1234.69 102.891 1229.53 98.2031 1226.95 92.5781L1236.09 87.6562Z" fill="black"/>
</g>
<g clip-path="url(#clip2_2187_419)">
<path d="M1542 0H1458C1448.06 0 1440 8.05888 1440 18V102C1440 111.941 1448.06 120 1458 120H1542C1551.94 120 1560 111.941 1560 102V18C1560 8.05888 1551.94 0 1542 0Z" fill="#3178C6"/>
<path d="M1494.61 66.5625H1509.61V56.9531H1467.66V66.5625H1482.66V109.453H1494.61V66.5625ZM1514.3 107.109C1516.2 108.094 1518.52 108.82 1521.09 109.313C1523.67 109.805 1526.48 110.039 1529.3 110.039C1532.11 110.039 1534.69 109.781 1537.27 109.242C1539.84 108.703 1541.95 107.813 1543.83 106.664C1545.73 105.422 1547.34 103.852 1548.28 101.742C1549.22 99.6328 1549.95 97.2891 1549.95 94.2422C1549.95 92.1094 1549.62 90.2578 1548.98 88.6172C1548.35 86.9766 1547.44 85.5703 1546.17 84.3985C1544.98 83.1563 1543.59 82.0547 1541.95 81.1172C1540.31 80.1797 1538.44 79.1953 1536.33 78.3047C1534.78 77.6719 1533.52 77.0625 1532.11 76.4532C1530.89 75.8438 1529.84 75.2344 1529.06 74.625C1528.2 73.9922 1527.54 73.336 1527.07 72.6563C1526.6 71.9531 1526.37 71.1797 1526.37 70.3125C1526.37 69.5156 1526.58 68.7891 1527 68.1328C1527.42 67.4766 1528.01 66.9375 1528.76 66.4688C1529.51 66 1530.45 65.6485 1531.57 65.3906C1532.67 65.1328 1533.89 65.0156 1535.32 65.0156C1536.3 65.0156 1537.34 65.0883 1538.37 65.236C1539.45 65.3836 1540.55 65.611 1541.65 65.9156C1542.75 66.2203 1543.83 66.5953 1544.93 67.0641C1545.96 67.5328 1546.92 68.0719 1547.74 68.6813V57.6656C1545.96 56.986 1543.99 56.4703 1541.88 56.1422C1539.77 55.8141 1537.43 55.65 1534.62 55.65C1531.8 55.65 1529.23 55.9547 1526.65 56.5407C1524.07 57.1266 1521.96 58.0641 1520.09 59.3532C1518.19 60.6188 1516.8 62.1656 1515.63 64.275C1514.53 66.2438 1513.99 68.4938 1513.99 71.3063C1513.99 74.8219 1515 77.8688 1517.04 80.2125C1519.05 82.7906 1522.2 84.6656 1526.18 86.5406C1527.8 87.1969 1529.23 87.8532 1530.63 88.486C1532.04 89.1188 1533.21 89.775 1534.15 90.4547C1535.16 91.1344 1535.95 91.8844 1536.49 92.6813C1537.08 93.4781 1537.38 94.4156 1537.38 95.4938C1537.38 96.2438 1537.2 96.9469 1536.84 97.6031C1536.49 98.2594 1535.93 98.8219 1535.18 99.2907C1534.43 99.7594 1533.52 100.134 1532.37 100.416C1531.27 100.673 1530.02 100.814 1528.38 100.814C1525.8 100.814 1523.23 100.369 1520.88 99.4781C1518.3 98.5875 1515.96 97.2516 1514.3 95.8594V107.109Z" fill="white"/>
</g>
<path d="M1702.5 105L1695 11.25H1785L1777.5 105L1740 116.25L1702.5 105Z" fill="#1172B8"/>
<path d="M1777.5 18.75H1740V110.625L1770 101.25L1777.5 18.75Z" fill="#33AADD"/>
<path d="M1753.12 65.625H1715.62L1713.75 52.5L1743.75 43.125H1713.75L1711.88 31.875H1770L1768.12 45L1743.75 54.375H1766.25L1762.5 90L1740 97.5L1717.5 90L1715.62 71.25H1726.88L1728.75 80.625L1740 84.375L1751.25 80.625L1753.12 65.625Z" fill="white"/>
<path d="M1942.5 105L1935 11.25H2025L2017.5 105L1980 116.25L1942.5 105Z" fill="#E44D26"/>
<path d="M2017.5 18.75H1980V110.625L2010 101.25L2017.5 18.75Z" fill="#F16529"/>
<path d="M1955.62 65.625L1951.88 30H2010L2008.12 41.25H1963.12L1965 54.375H2006.25L2002.5 90L1980 97.5L1957.5 90L1955.62 71.25H1966.88L1968.75 80.625L1980 84.375L1991.25 80.625L1993.12 65.625H1955.62Z" fill="white"/>
<path d="M2264.98 24.4508L2227.18 2.00953C2222.69 -0.669842 2217.09 -0.669842 2212.59 2.00953L2174.79 24.4508C2170.24 27.1942 2167.47 32.1279 2167.5 37.4388V82.3139C2167.48 87.6221 2170.24 92.5522 2174.79 95.2942L2212.59 117.728C2217.08 120.406 2222.68 120.406 2227.17 117.728L2264.97 95.2942C2269.52 92.5527 2272.29 87.6187 2272.27 82.3063V37.4388C2272.29 32.1279 2269.53 27.1942 2264.98 24.4508Z" fill="white"/>
<path d="M2265.19 24.5047L2227.31 2.01395C2222.81 -0.671318 2217.2 -0.671318 2212.69 2.01395L2174.81 24.5047C2170.25 27.2541 2167.47 32.1987 2167.5 37.5213V82.4952C2167.48 87.815 2170.25 92.7561 2174.81 95.5041L2212.69 117.987C2217.19 120.671 2222.8 120.671 2227.3 117.987L2265.19 95.5041C2269.75 92.7566 2272.52 87.8117 2272.5 82.4876V37.5213C2272.53 32.1987 2269.75 27.2541 2265.19 24.5047ZM2214.01 115.689L2176.13 93.2058C2172.39 90.9373 2170.11 86.8723 2170.12 82.4952V37.5213C2170.11 33.1437 2172.39 29.078 2176.13 26.8107L2214.01 4.31992C2217.7 2.12043 2222.3 2.12043 2225.98 4.31992L2263.84 26.8107C2266.96 28.7006 2269.08 31.8698 2269.65 35.4732C2268.39 32.7955 2265.56 32.0598 2262.26 33.9561L2226.45 56.1359C2221.99 58.7377 2218.69 61.6732 2218.69 67.0588V111.221C2218.69 114.445 2219.98 116.531 2221.99 117.145C2221.33 117.265 2220.67 117.329 2220 117.335C2217.89 117.333 2215.83 116.765 2214.01 115.689Z" fill="#2F3A3E"/>
<path d="M2255.16 86.7468L2245.74 92.3779C2245.49 92.4793 2245.32 92.7194 2245.31 92.991V95.466C2245.31 95.7687 2245.52 95.8898 2245.77 95.746L2255.33 89.9332C2255.56 89.7577 2255.67 89.463 2255.61 89.1763V87.0041C2255.61 86.7241 2255.39 86.603 2255.16 86.7468Z" fill="#3AB14A"/>
<path d="M2235.12 66.0149C2235.43 65.8635 2235.68 66.0149 2235.68 66.4463L2235.71 69.7311C2236.85 69.2168 2238.11 69.0635 2239.33 69.2922C2239.57 69.3527 2239.66 69.6706 2239.57 70.049L2238.85 72.9327C2238.8 73.1504 2238.69 73.3491 2238.53 73.5079C2238.47 73.5629 2238.41 73.6088 2238.34 73.6442C2238.25 73.6905 2238.16 73.7065 2238.06 73.6896C2236.87 73.4256 2235.62 73.6259 2234.57 74.2497C2233.04 74.9409 2232.03 76.45 2231.99 78.1324C2231.99 79.6462 2232.75 80.0625 2235.39 80.1079C2238.88 80.1684 2240.39 81.6898 2240.43 85.2092C2240.35 88.8829 2238.65 92.3343 2235.8 94.6474L2235.86 97.8717C2235.85 98.2722 2235.64 98.6426 2235.3 98.8556L2233.4 99.9531C2233.09 100.104 2232.84 99.9531 2232.84 99.5293V96.358C2231.2 97.0392 2229.54 97.1981 2228.49 96.7742C2228.29 96.6986 2228.2 96.4034 2228.28 96.0628L2228.97 93.1488C2229.02 92.9182 2229.14 92.7078 2229.31 92.5433C2229.36 92.4917 2229.43 92.4484 2229.49 92.4147C2229.59 92.3703 2229.7 92.3703 2229.8 92.4147C2231.15 92.7805 2232.59 92.5982 2233.81 91.9075C2235.56 91.0616 2236.7 89.3125 2236.77 87.3663C2236.77 85.7315 2235.86 85.0503 2233.74 85.0351C2230.99 85.0351 2228.44 84.5053 2228.39 80.4939C2228.45 76.9894 2230.08 73.6967 2232.82 71.5174L2232.69 68.2174C2232.68 67.8112 2232.89 67.4332 2233.24 67.2183L2235.12 66.0149Z" fill="white"/>
<path d="M2461.88 112.5L2461.83 111.296C2463.33 111.244 2464.83 111.127 2466.3 110.944L2466.44 112.14C2464.92 112.32 2463.38 112.44 2461.88 112.5ZM2457.29 112.459C2455.79 112.38 2454.24 112.23 2452.73 112.016L2452.9 110.824C2454.38 111.03 2455.88 111.176 2457.36 111.255L2457.29 112.459ZM2470.95 111.375L2470.7 110.197C2472.15 109.886 2473.61 109.507 2475.03 109.072L2475.38 110.224C2473.93 110.666 2472.44 111.056 2470.95 111.375ZM2448.21 111.176C2446.71 110.835 2445.25 110.426 2443.8 109.954L2444.17 108.806C2445.59 109.264 2447.04 109.669 2448.49 110.002L2448.21 111.176ZM2479.71 108.682L2479.26 107.557C2480.62 107.002 2481.99 106.38 2483.31 105.709H2483.33L2483.88 106.781C2482.5 107.479 2481.1 108.116 2479.7 108.682H2479.71ZM2439.52 108.352C2438.12 107.76 2436.73 107.096 2435.4 106.387L2435.96 105.322C2437.27 106.02 2438.63 106.665 2440 107.242L2439.52 108.352ZM2487.87 104.524L2487.23 103.5C2488.5 102.712 2489.74 101.861 2490.92 100.969L2491.65 101.932C2490.42 102.844 2489.14 103.717 2487.85 104.524H2487.87ZM2431.42 104.066C2430.14 103.241 2428.89 102.345 2427.67 101.411L2428.42 100.462C2429.59 101.374 2430.82 102.247 2432.07 103.054L2431.42 104.066ZM2495.17 99.0187L2494.36 98.1225C2495.47 97.1287 2496.54 96.075 2497.56 94.9875L2498.44 95.8087C2497.4 96.9225 2496.3 98.0025 2495.17 99L2495.17 99.0187ZM2424.2 98.445C2423.08 97.41 2422.01 96.3112 2420.99 95.1825L2421.89 94.3762C2422.88 95.4787 2423.94 96.5512 2425.02 97.5637L2424.2 98.445ZM2501.4 92.325L2500.46 91.575C2501.37 90.405 2502.24 89.1787 2503.05 87.93L2504.06 88.5862C2503.23 89.8725 2502.34 91.125 2501.4 92.325ZM2418.08 91.6462C2417.16 90.4312 2416.29 89.1637 2415.48 87.87L2416.5 87.2325C2417.29 88.4962 2418.14 89.7375 2419.04 90.9225L2418.08 91.6462ZM2506.38 84.645L2505.31 84.0787C2506.01 82.7662 2506.65 81.405 2507.24 80.0362L2508.36 80.505C2507.76 81.9112 2507.09 83.3025 2506.38 84.645ZM2413.22 83.895L2413.2 83.85C2412.51 82.5037 2411.88 81.12 2411.32 79.725L2412.45 79.2712C2413 80.6287 2413.62 81.9862 2414.29 83.2987L2414.31 83.3437L2413.22 83.895ZM2509.95 76.2187L2508.8 75.8437C2509.26 74.43 2509.67 72.9787 2510 71.5312L2511.17 71.8012C2510.83 73.2862 2510.42 74.7712 2509.95 76.2187ZM2409.78 75.4012C2409.33 73.9462 2408.94 72.4537 2408.62 70.9687L2409.8 70.7175C2410.11 72.1687 2410.49 73.6275 2410.93 75.0487L2409.78 75.4012ZM2512.01 67.2975L2510.82 67.1287C2511.03 65.655 2511.17 64.155 2511.25 62.6737L2512.46 62.7375C2512.38 64.2562 2512.23 65.79 2512.01 67.2975ZM2407.87 66.45C2407.69 64.95 2407.57 63.405 2407.5 61.8825L2408.7 61.8412C2408.76 63.3412 2408.88 64.8412 2409.06 66.3037L2407.87 66.45ZM2511.31 58.2C2511.25 56.7 2511.14 55.2 2510.96 53.7375L2512.16 53.5912C2512.34 55.0912 2512.46 56.64 2512.53 58.1587L2511.31 58.2ZM2408.74 57.375L2407.54 57.3C2407.62 55.7812 2407.77 54.2475 2407.98 52.74L2409.17 52.9087C2408.96 54.375 2408.82 55.875 2408.74 57.375ZM2510.21 49.335C2509.89 47.8837 2509.51 46.425 2509.08 45.0037L2510.25 44.625C2510.7 46.08 2511.09 47.5725 2511.4 49.0612L2510.21 49.335ZM2409.99 48.5025L2408.81 48.2325C2409.15 46.7325 2409.56 45.2662 2410.04 43.8187L2411.18 44.1937C2410.72 45.6037 2410.32 47.055 2409.99 48.5025ZM2507.58 40.77C2507.02 39.3975 2506.4 38.025 2505.71 36.6975L2506.78 36.15C2507.48 37.5112 2508.11 38.91 2508.68 40.3162L2507.58 40.77ZM2412.75 39.9937L2411.62 39.525C2412.22 38.1225 2412.88 36.7312 2413.59 35.4L2414.65 35.9625C2413.96 37.2637 2413.32 38.625 2412.75 39.9937ZM2416.92 32.0887L2415.91 31.4362C2416.74 30.1575 2417.63 28.9012 2418.56 27.6862L2419.51 28.4362C2418.6 29.625 2417.73 30.84 2416.92 32.0887ZM2422.41 25.035L2421.53 24.2137C2422.57 23.0887 2423.67 22.02 2424.79 21L2425.6 21.8962C2424.5 22.875 2423.43 23.9475 2422.41 25.035ZM2429.05 19.035L2428.33 18.0712C2429.54 17.1562 2430.81 16.2825 2432.1 15.4762L2432.74 16.4962C2431.48 17.3025 2430.24 18.1537 2429.05 19.0462V19.035ZM2487.94 16.9425L2487.88 16.8975L2488.53 15.885L2488.6 15.9262L2487.94 16.9425ZM2484.02 14.6325C2482.71 13.935 2481.34 13.29 2479.98 12.7125L2480.44 11.5875C2481.85 12.18 2483.24 12.84 2484.57 13.5525L2484.02 14.6325ZM2436.63 14.3062L2436.09 13.2337L2436.15 13.2C2437.49 12.5212 2438.87 11.8912 2440.25 11.325L2440.71 12.45C2439.35 13.0012 2438.01 13.6162 2436.7 14.28L2436.63 14.3062ZM2475.78 11.1637C2474.37 10.7062 2472.92 10.305 2471.47 9.97497L2471.74 8.80122C2473.24 9.14247 2474.71 9.55122 2476.16 10.02L2475.78 11.1637ZM2444.92 10.9387L2444.57 9.78747C2446.03 9.34122 2447.52 8.95122 2449 8.63247L2449.26 9.80997C2447.8 10.125 2446.35 10.5 2444.92 10.9387ZM2467.05 9.16497C2465.58 8.95872 2464.08 8.81997 2462.59 8.74122L2462.66 7.53747C2464.17 7.61622 2465.71 7.75872 2467.21 7.96872L2467.05 9.16497ZM2453.65 9.06747L2453.5 7.87122C2455 7.68372 2456.55 7.55997 2458.07 7.49622L2458.12 8.69997C2456.65 8.76372 2455.14 8.88372 2453.67 9.06747H2453.65Z" fill="#808080"/>
<path d="M2460 100.148C2482.18 100.148 2500.16 82.1695 2500.16 59.9925C2500.16 37.8155 2482.18 19.8375 2460 19.8375C2437.82 19.8375 2419.85 37.8155 2419.85 59.9925C2419.85 82.1695 2437.82 100.148 2460 100.148Z" fill="#000080"/>
<path d="M2476.63 55.1175C2483.13 55.1175 2488.39 49.8524 2488.39 43.3575C2488.39 36.8627 2483.13 31.5975 2476.63 31.5975C2470.14 31.5975 2464.87 36.8627 2464.87 43.3575C2464.87 49.8524 2470.14 55.1175 2476.63 55.1175Z" fill="white"/>
<path d="M2500.15 31.6012C2506.65 31.6012 2511.92 26.3344 2511.92 19.8375C2511.92 13.3405 2506.65 8.07373 2500.15 8.07373C2493.66 8.07373 2488.39 13.3405 2488.39 19.8375C2488.39 26.3344 2493.66 31.6012 2500.15 31.6012Z" fill="#000080"/>
<path d="M2449.13 80.07V77.1075H2436.11V53.7225H2432.73V80.07H2449.13Z" fill="white"/>
<path d="M2467.19 80.07V61.125H2464.18V71.5687C2464.18 75.435 2462.16 77.9663 2459.02 77.9663C2458.51 78.0141 2458 77.9522 2457.52 77.7849C2457.03 77.6175 2456.59 77.3485 2456.22 76.9962C2455.85 76.6438 2455.57 76.2163 2455.38 75.7425C2455.19 75.2687 2455.1 74.7597 2455.13 74.25V61.125H2452.12V75.4388C2452.12 78.5813 2454.47 80.6063 2458.16 80.6063C2459.43 80.6584 2460.69 80.363 2461.8 79.7517C2462.92 79.1405 2463.85 78.2366 2464.48 77.1375V80.0663H2467.2" fill="white"/>
<path d="M2489.22 79.9988V77.7225C2489 77.7746 2488.79 77.7986 2488.57 77.7938C2487.52 77.7938 2486.94 77.25 2486.94 76.2938V65.76C2486.94 62.385 2484.48 60.5925 2479.82 60.5925C2475.23 60.5925 2472.41 62.3625 2472.23 66.735H2475.26C2475.51 64.4213 2476.89 63.36 2479.71 63.36C2482.42 63.36 2483.94 64.3725 2483.94 66.18V66.975C2483.94 68.2388 2483.19 68.7825 2480.79 69.0713C2478.73 69.1634 2476.68 69.5524 2474.72 70.2263C2473.71 70.5797 2472.85 71.2487 2472.25 72.1342C2471.65 73.0196 2471.35 74.0745 2471.4 75.1425C2471.4 78.5775 2473.78 80.5988 2477.61 80.5988C2478.82 80.5966 2480.01 80.3487 2481.12 79.8702C2482.22 79.3918 2483.22 78.6929 2484.05 77.8163C2484.21 78.5217 2484.6 79.1521 2485.17 79.6048C2485.73 80.0576 2486.43 80.3061 2487.15 80.31C2487.85 80.2993 2488.55 80.1894 2489.21 79.9838M2483.94 73.515C2483.77 74.8537 2483.08 76.0714 2482.01 76.9034C2480.95 77.7355 2479.6 78.1147 2478.26 77.9588C2475.92 77.9588 2474.54 77.1263 2474.54 75.0675C2474.54 73.08 2475.88 72.2138 2479.09 71.7413C2480.75 71.6632 2482.39 71.3096 2483.93 70.695L2483.94 73.515Z" fill="white"/>
<g clip-path="url(#clip3_2187_419)">
<path d="M2736 78C2728.2 78 2721.6 82.8 2719.2 90H2694C2694 85.8 2692.8 82.2 2691 79.2L2733.6 35.4C2735.4 35.4 2737.2 36 2739 36C2747.4 36 2754 29.4 2754 21C2754 12.6 2747.4 6 2739 6C2730.6 6 2724 12.6 2724 21C2724 22.8 2724.6 25.2 2725.2 27L2683.2 70.2C2679.6 67.2 2674.8 66 2670 66V40.8C2677.2 38.4 2682 31.8 2682 24C2682 13.8 2674.2 6 2664 6C2653.8 6 2646 13.8 2646 24C2646 31.8 2650.8 38.4 2658 40.8V69C2650.8 73.2 2646 81 2646 89.4C2646 102.6 2656.8 113.4 2670 113.4C2679 113.4 2686.8 108.6 2690.4 101.4H2718.6C2721 108 2727.6 113.4 2735.4 113.4C2745 113.4 2753.4 105.6 2753.4 95.4C2754 85.8 2745.6 78 2736 78Z" fill="white"/>
</g>
<path fill-rule="evenodd" clip-rule="evenodd" d="M2950.24 13.7348L2974.88 27.9635C2975.58 27.2285 2976.39 26.5795 2977.31 26.0454C2982.42 23.1072 2988.94 24.8517 2991.91 29.9629C2994.85 35.074 2993.1 41.593 2987.99 44.5617C2987.08 45.0863 2986.12 45.4616 2985.14 45.6951V74.1638C2986.11 74.3978 2987.06 74.7707 2987.96 75.2898C2993.1 78.2585 2994.85 84.7775 2991.88 89.8886C2988.94 94.9998 2982.39 96.7443 2977.28 93.8062C2976.26 93.2212 2975.38 92.4931 2974.64 91.6617L2950.14 105.804C2950.49 106.862 2950.68 107.993 2950.68 109.17C2950.68 115.046 2945.91 119.852 2940 119.852C2934.09 119.852 2929.32 115.077 2929.32 109.17C2929.32 108.12 2929.47 107.106 2929.75 106.148L2905.11 91.9231C2904.43 92.6437 2903.63 93.2806 2902.72 93.8062C2897.58 96.7443 2891.06 94.9998 2888.12 89.8886C2885.19 84.7775 2886.93 78.2585 2892.04 75.2898C2892.94 74.7703 2893.89 74.3972 2894.86 74.1632V45.6951C2893.88 45.4616 2892.92 45.0863 2892.01 44.5617C2886.9 41.6236 2885.15 35.074 2888.09 29.9629C2891.03 24.8517 2897.58 23.1072 2902.69 26.0454C2903.61 26.5766 2904.41 27.2214 2905.1 27.9515L2929.76 13.7189C2929.47 12.7564 2929.32 11.737 2929.32 10.6814C2929.32 4.77447 2934.09 0 2940 0C2945.91 0 2950.68 4.77447 2950.68 10.6814C2950.68 11.7428 2950.53 12.7676 2950.24 13.7348ZM2947.67 18.1187L2972.38 32.3813C2971.61 35.0632 2971.89 38.0369 2973.39 40.6442C2974.89 43.2601 2977.34 44.9941 2980.06 45.6699V74.1741C2979.92 74.2081 2979.79 74.2449 2979.65 74.2843L2947.39 18.4036C2947.48 18.3104 2947.58 18.2155 2947.67 18.1187ZM2932.62 18.41L2900.36 74.2899C2900.22 74.2493 2900.08 74.2117 2899.94 74.1769V45.6699C2902.66 44.9941 2905.11 43.2601 2906.61 40.6442C2908.11 38.0317 2908.39 35.0514 2907.62 32.3654L2932.32 18.1068C2932.42 18.2099 2932.52 18.311 2932.62 18.41ZM2942.98 20.9416L2975.24 76.8087C2974.52 77.497 2973.88 78.299 2973.36 79.2073C2972.84 80.1102 2972.47 81.0581 2972.23 82.023H2907.77C2907.53 81.0587 2907.16 80.111 2906.64 79.2073C2906.12 78.3048 2905.48 77.5073 2904.76 76.8219L2937.02 20.9442C2937.97 21.2167 2938.97 21.3627 2940 21.3627C2941.04 21.3627 2942.04 21.2158 2942.98 20.9416ZM2947.9 101.974L2972.44 87.8041C2972.37 87.5729 2972.3 87.3392 2972.24 87.1035H2907.75C2907.72 87.242 2907.68 87.3798 2907.64 87.5168L2932.3 101.756C2934.25 99.7411 2936.97 98.4888 2940 98.4888C2943.13 98.4888 2945.95 99.8317 2947.9 101.974Z" fill="#E535AB"/>
<path d="M3180 115.652C3210.74 115.652 3235.65 90.7358 3235.65 60C3235.65 29.2641 3210.74 4.34778 3180 4.34778C3149.26 4.34778 3124.35 29.2641 3124.35 60C3124.35 90.7358 3149.26 115.652 3180 115.652Z" fill="black"/>
<mask id="mask0_2187_419" style="mask-type:luminance" maskUnits="userSpaceOnUse" x="3130" y="10" width="100" height="100">
<path d="M3180 110C3207.61 110 3230 87.6142 3230 60C3230 32.3858 3207.61 10 3180 10C3152.39 10 3130 32.3858 3130 60C3130 87.6142 3152.39 110 3180 110Z" fill="white"/>
</mask>
<g mask="url(#mask0_2187_419)">
<path d="M3139.78 73.6956L3143.48 60ZM3147.82 39.3684L3151.51 25.6728ZM3132.38 52.3913L3136.07 38.6956ZM3151.73 88.0434L3155.43 74.3478ZM3159.21 110.18L3162.91 96.4845ZM3174.35 103.55L3178.04 89.8541ZM3169.19 24.4754L3172.88 10.7797ZM3195.3 41.9574L3199 28.2617ZM3222.65 70.5854L3226.34 56.8897ZM3213.29 52.3913L3216.98 38.6956ZM3189.35 16.2082L3193.05 2.51257ZM3211.44 23.0561L3215.14 9.3604Z" fill="black"/>
<path d="M3139.78 73.6956L3143.48 60M3147.82 39.3684L3151.51 25.6728M3132.38 52.3913L3136.07 38.6956M3151.73 88.0434L3155.43 74.3478M3159.21 110.18L3162.91 96.4845M3174.35 103.55L3178.04 89.8541M3169.19 24.4754L3172.88 10.7797M3195.3 41.9574L3199 28.2617M3222.65 70.5854L3226.34 56.8897M3213.29 52.3913L3216.98 38.6956M3189.35 16.2082L3193.05 2.51257M3211.44 23.0561L3215.14 9.3604" stroke="white" stroke-width="2.71739" stroke-linecap="round"/>
</g>
<mask id="mask1_2187_419" style="mask-type:luminance" maskUnits="userSpaceOnUse" x="3130" y="10" width="100" height="100">
<path d="M3180 110C3207.61 110 3230 87.6142 3230 60C3230 32.3858 3207.61 10 3180 10C3152.39 10 3130 32.3858 3130 60C3130 87.6142 3152.39 110 3180 110Z" fill="white"/>
</mask>
<g mask="url(#mask1_2187_419)">
<path d="M3179.18 79.2213C3160.34 79.7887 3147.75 71.7213 3147.75 58.7076C3147.75 45.3393 3160.87 34.5457 3177.83 34.5457C3186.02 34.5457 3192.94 36.8609 3198.35 41.0874C3203.1 44.8076 3206.5 49.8974 3208.24 55.503C3208.8 57.3076 3213.21 73.7133 3221.53 104.915L3221.81 105.972L3187.07 122.155L3186.83 120.402C3184.91 106.32 3183.23 95.7633 3181.81 88.7424C3181.11 85.2633 3180.47 82.6641 3179.9 80.9611C3179.64 80.1606 3179.39 79.5783 3179.19 79.2324C3179.18 79.2288 3179.18 79.2251 3179.18 79.2215V79.2213Z" fill="white" stroke="black" stroke-width="1.30435"/>
</g>
<mask id="mask2_2187_419" style="mask-type:luminance" maskUnits="userSpaceOnUse" x="3130" y="10" width="100" height="100">
<path d="M3180 110C3207.61 110 3230 87.6142 3230 60C3230 32.3858 3207.61 10 3180 10C3152.39 10 3130 32.3858 3130 60C3130 87.6142 3152.39 110 3180 110Z" fill="white"/>
</mask>
<g mask="url(#mask2_2187_419)">
<path d="M3181.3 51.9565C3183.23 51.9565 3184.78 50.3993 3184.78 48.4783C3184.78 46.5573 3183.23 45 3181.3 45C3179.38 45 3177.83 46.5573 3177.83 48.4783C3177.83 50.3993 3179.38 51.9565 3181.3 51.9565Z" fill="black"/>
</g>
<path d="M3448.32 74.4711L3451.78 65.7048H3461.79L3457.04 52.4068L3462.98 37.3828L3480 82.5631H3467.45L3464.54 74.4711H3448.32Z" fill="#3D3D3D"/>
<path d="M3437.61 82.5633L3455.83 37.3829L3443.75 37.383L3431.29 66.5795L3422.43 37.3831H3413.14L3403.63 66.5795L3396.92 53.2753L3390.85 71.9824L3397.01 82.5633H3408.9L3417.5 56.3803L3425.69 82.5633H3437.61Z" fill="#5A0FC8"/>
<path d="M3371.46 67.0535H3378.9C3381.16 67.0535 3383.16 66.802 3384.92 66.299L3386.85 60.3723L3392.22 43.808C3391.81 43.1586 3391.34 42.5447 3390.82 41.9662C3388.06 38.9106 3384.02 37.3828 3378.7 37.3828H3360V82.5631H3371.46V67.0535ZM3381.31 47.777C3382.39 48.8622 3382.93 50.3144 3382.93 52.1338C3382.93 53.9671 3382.45 55.4211 3381.5 56.4959C3380.47 57.69 3378.55 58.2871 3375.76 58.2871H3371.46V46.1491H3375.79C3378.39 46.1491 3380.23 46.6917 3381.31 47.777Z" fill="#3D3D3D"/>
<path d="M3694.85 55.966L3692.37 54.9703C3680.66 81.2972 3634.12 65.2917 3631.32 73.1236C3630.85 78.4139 3656.74 74.1296 3675.24 75.0263C3680.89 75.2996 3683.72 79.5596 3681.32 86.5032L3686.04 86.5177C3691.48 69.5447 3708.86 78.2067 3709.59 72.6052C3708.39 68.9222 3689.62 72.6052 3694.85 55.966Z" fill="white"/>
<path d="M3682.66 83.601C3683.4 81.1114 3683.15 78.6219 3681.91 77.128C3680.66 75.6341 3678.92 74.6385 3676.68 74.3896L3633.36 73.8913C3633.11 73.8913 3632.86 73.6424 3632.61 73.6424C3632.37 73.3935 3632.37 73.1446 3632.61 72.8957C3632.86 72.3978 3633.11 72.1485 3633.61 72.1485L3677.18 71.6507C3682.41 71.4018 3687.88 67.1694 3689.88 62.1903L3692.37 55.7174C3692.37 55.468 3692.61 55.2191 3692.37 54.9702C3689.63 42.2732 3678.17 32.8124 3664.73 32.8124C3652.28 32.8124 3641.58 40.7793 3637.84 51.9828C3635.35 50.24 3632.37 49.2439 3628.88 49.4933C3622.9 49.9911 3618.17 54.9702 3617.43 60.9453C3617.18 62.4393 3617.43 63.9332 3617.68 65.4266C3607.97 65.6755 3600 73.6424 3600 83.601C3600 84.5966 3600 85.3438 3600.25 86.3394C3600.25 86.8377 3600.75 87.0866 3601 87.0866H3680.91C3681.41 87.0866 3681.91 86.8377 3681.91 86.3394L3682.66 83.601Z" fill="#F4811F"/>
<path d="M3696.35 55.717H3695.1C3694.86 55.717 3694.61 55.9659 3694.36 56.2149L3692.61 62.19C3691.87 64.6795 3692.12 67.1695 3693.36 68.663C3694.61 70.1569 3696.35 71.1525 3698.59 71.4019L3707.8 71.8997C3708.05 71.8997 3708.3 72.1486 3708.55 72.1486C3708.8 72.3975 3708.8 72.6464 3708.55 72.8953C3708.3 73.3936 3708.05 73.6425 3707.55 73.6425L3698.09 74.1403C3692.86 74.3892 3687.39 78.6216 3685.39 83.6006L3684.9 85.8417C3684.65 86.0906 3684.9 86.5884 3685.39 86.5884H3718.26C3718.76 86.5884 3719 86.3395 3719 85.8417C3719.5 83.85 3720 81.6094 3720 79.3683C3720 66.4224 3709.29 55.717 3696.35 55.717Z" fill="#FAAD3F"/>
<path d="M3900 5L3960 110H3840L3900 5Z" fill="white"/>
<g clip-path="url(#clip4_2187_419)">
<path d="M4172.56 34.02L4173.69 32.3175L4175.65 33.51L4176.52 34.1325C4178.62 35.7525 4183.04 39.8925 4183.99 46.7625C4185.67 46.4625 4187.35 46.3125 4189.04 46.3125C4193.05 46.3125 4195.74 47.2425 4197.27 48.015L4198.06 48.4425L4198.57 48.78L4200 49.95L4199.5 51.45C4198.74 53.5064 4197.53 55.3735 4195.98 56.925C4193.8 59.1675 4189.98 61.815 4183.91 62.16L4182.58 62.1975H4181.47C4178.69 69.525 4174.96 77.7825 4168.7 85.1925C4164.99 89.5958 4160.58 93.365 4155.65 96.3525C4149.75 99.8566 4143.28 102.313 4136.53 103.612C4131.7 104.55 4126.8 105.015 4121.89 105C4111.01 105 4101.41 102.84 4095.51 99.06C4090.24 95.6925 4086.19 90.195 4083.46 82.7325C4081.08 75.9135 4079.91 68.7301 4080.01 61.5075C4079.99 60.5815 4080.32 59.6817 4080.91 58.9716C4081.5 58.2615 4082.33 57.7882 4083.25 57.6375L4083.76 57.6H4162.81L4163.5 57.5475L4164.61 57.4275C4166.53 57.1725 4169.46 56.6025 4171.51 55.4025C4169.05 51.33 4168.36 46.5675 4169.5 41.4975C4169.99 39.3827 4170.74 37.3402 4171.75 35.4225L4172.56 34.02ZM4101.67 43.38L4101.97 43.4325C4102.11 43.4838 4102.24 43.5659 4102.34 43.6726C4102.44 43.7792 4102.51 43.9075 4102.55 44.0475L4102.6 44.3475V54.21L4102.55 54.5175C4102.51 54.6583 4102.43 54.7871 4102.33 54.8938C4102.23 55.0005 4102.11 55.0822 4101.97 55.1325L4101.67 55.1775H4091.08C4090.89 55.1749 4090.7 55.1095 4090.54 54.9908C4090.38 54.8722 4090.26 54.7064 4090.21 54.5175L4090.15 54.2175V44.34L4090.21 44.04C4090.25 43.8979 4090.32 43.7676 4090.43 43.6595C4090.53 43.5514 4090.65 43.4686 4090.79 43.4175L4091.08 43.3725L4101.67 43.38ZM4116.28 43.38L4116.57 43.4325C4116.71 43.4828 4116.83 43.5645 4116.93 43.6712C4117.04 43.7779 4117.11 43.9067 4117.15 44.0475L4117.2 44.3475V54.21L4117.15 54.5175C4117.1 54.6583 4117.03 54.7871 4116.93 54.8938C4116.83 55.0005 4116.7 55.0822 4116.56 55.1325L4116.27 55.1775H4105.68C4105.48 55.1737 4105.29 55.1079 4105.13 54.9894C4104.98 54.8709 4104.86 54.7058 4104.8 54.5175L4104.75 54.225V44.3475C4104.75 44.1468 4104.81 43.9505 4104.92 43.7854C4105.04 43.6203 4105.2 43.4945 4105.39 43.425L4105.68 43.3725L4116.28 43.38ZM4131.1 43.38L4131.39 43.4325C4131.53 43.4838 4131.65 43.5659 4131.75 43.6726C4131.85 43.7792 4131.92 43.9075 4131.97 44.0475L4132.02 44.3475V54.21L4131.97 54.5175C4131.92 54.6583 4131.85 54.7871 4131.75 54.8938C4131.65 55.0005 4131.52 55.0822 4131.38 55.1325L4131.09 55.1775H4120.5C4120.3 55.1749 4120.11 55.1095 4119.95 54.9908C4119.8 54.8722 4119.68 54.7064 4119.62 54.5175L4119.58 54.2175V44.34L4119.62 44.04C4119.66 43.8979 4119.74 43.7676 4119.84 43.6595C4119.94 43.5514 4120.07 43.4686 4120.21 43.4175L4120.5 43.3725L4131.1 43.38ZM4145.74 43.38L4146.03 43.4325C4146.17 43.4828 4146.29 43.5645 4146.39 43.6712C4146.5 43.7779 4146.57 43.9067 4146.61 44.0475L4146.67 44.3475V54.21C4146.67 54.4107 4146.61 54.607 4146.49 54.7721C4146.38 54.9372 4146.22 55.063 4146.03 55.1325L4145.73 55.1775H4135.15C4134.95 55.1749 4134.76 55.1095 4134.6 54.9908C4134.44 54.8722 4134.33 54.7064 4134.27 54.5175L4134.22 54.2175V44.34L4134.27 44.04C4134.31 43.8979 4134.39 43.7676 4134.49 43.6595C4134.59 43.5514 4134.72 43.4686 4134.85 43.4175L4135.15 43.3725H4145.74L4145.74 43.38ZM4160.51 43.38L4160.8 43.4325C4160.94 43.4828 4161.07 43.5645 4161.17 43.6712C4161.27 43.7779 4161.35 43.9067 4161.39 44.0475L4161.43 44.3475V54.21C4161.44 54.4107 4161.38 54.607 4161.26 54.7721C4161.15 54.9372 4160.99 55.063 4160.8 55.1325L4160.5 55.1775H4149.91C4149.72 55.1749 4149.53 55.1095 4149.37 54.9908C4149.21 54.8722 4149.09 54.7064 4149.04 54.5175L4148.99 54.2175V44.34L4149.04 44.04C4149.08 43.8979 4149.15 43.7676 4149.26 43.6595C4149.36 43.5514 4149.48 43.4686 4149.62 43.4175L4149.92 43.3725H4160.5L4160.51 43.38ZM4116.26 29.19L4116.56 29.2425C4116.7 29.293 4116.82 29.374 4116.92 29.4793C4117.02 29.5846 4117.1 29.7114 4117.14 29.85L4117.19 30.1575V40.02C4117.19 40.2207 4117.13 40.417 4117.02 40.5821C4116.91 40.7472 4116.74 40.873 4116.55 40.9425L4116.26 40.995H4105.68C4105.48 40.9902 4105.29 40.9222 4105.13 40.8009C4104.97 40.6795 4104.86 40.5111 4104.8 40.32L4104.75 40.02V30.1575C4104.75 29.9581 4104.81 29.7635 4104.92 29.5999C4105.04 29.4362 4105.2 29.3115 4105.39 29.2425L4105.68 29.19H4116.26ZM4131.08 29.19L4131.38 29.2425C4131.52 29.293 4131.64 29.374 4131.74 29.4793C4131.84 29.5846 4131.92 29.7114 4131.96 29.85L4132.01 30.1575V40.02C4132.01 40.2207 4131.95 40.417 4131.84 40.5821C4131.73 40.7472 4131.56 40.873 4131.37 40.9425L4131.08 40.995H4120.5C4120.3 40.9902 4120.11 40.9222 4119.95 40.8009C4119.79 40.6795 4119.68 40.5111 4119.62 40.32L4119.58 40.02V30.1575L4119.62 29.8575C4119.67 29.7167 4119.74 29.5879 4119.84 29.4812C4119.94 29.3745 4120.07 29.2928 4120.21 29.2425L4120.5 29.19H4131.08ZM4145.73 29.19C4146.13 29.19 4146.48 29.4675 4146.61 29.85L4146.66 30.1575V40.02C4146.66 40.2207 4146.6 40.417 4146.49 40.5821C4146.37 40.7472 4146.21 40.873 4146.02 40.9425L4145.72 40.995H4135.15C4134.95 40.9902 4134.76 40.9222 4134.6 40.8009C4134.44 40.6795 4134.33 40.5111 4134.27 40.32L4134.22 40.02V30.1575L4134.27 29.8575C4134.31 29.7167 4134.39 29.5879 4134.49 29.4812C4134.59 29.3745 4134.72 29.2928 4134.85 29.2425L4135.15 29.19H4145.74H4145.73ZM4145.73 15C4146.13 15 4146.48 15.2775 4146.61 15.66L4146.66 15.96V25.83C4146.66 26.0307 4146.6 26.227 4146.49 26.3921C4146.37 26.5572 4146.21 26.683 4146.02 26.7525L4145.72 26.7975H4135.15C4134.95 26.7949 4134.76 26.7295 4134.6 26.6108C4134.44 26.4922 4134.33 26.3264 4134.27 26.1375L4134.22 25.8375V15.96L4134.27 15.66C4134.31 15.5192 4134.39 15.3904 4134.49 15.2837C4134.59 15.177 4134.72 15.0953 4134.85 15.045L4135.15 15H4145.74H4145.73Z" fill="#2396ED"/>
</g>
<path d="M4384.12 59.9999C4384.12 50.3324 4391.77 42.5024 4401.19 42.5024C4410.61 42.5024 4418.25 50.3249 4418.25 59.9999C4418.25 69.6674 4410.61 77.4974 4401.19 77.4974C4391.77 77.4974 4384.12 69.6749 4384.12 59.9999Z" fill="#1ABCFE"/>
<path d="M4350 95.0026C4350 85.3351 4357.64 77.4976 4367.06 77.4976H4384.12V95.0026C4384.12 104.663 4376.48 112.5 4367.06 112.5C4357.64 112.5 4350 104.663 4350 95.0026Z" fill="#0ACF83"/>
<path d="M4384.12 7.5V42.5025H4401.19C4410.61 42.5025 4418.25 34.665 4418.25 24.9975C4418.25 15.3375 4410.61 7.5 4401.19 7.5H4384.12Z" fill="#FF7262"/>
<path d="M4350 24.9975C4350 34.665 4357.64 42.5025 4367.06 42.5025H4384.12V7.5H4367.06C4357.64 7.5 4350 15.3375 4350 24.9975Z" fill="#F24E1E"/>
<path d="M4350 59.9999C4350 69.6674 4357.64 77.4974 4367.06 77.4974H4384.12V42.5024H4367.06C4357.64 42.5024 4350 50.3249 4350 59.9999Z" fill="#A259FF"/>
<defs>
<linearGradient id="paint0_linear_2187_419" x1="286.803" y1="7.5" x2="286.803" y2="85.2776" gradientUnits="userSpaceOnUse">
<stop stop-color="#327EBD"/>
<stop offset="1" stop-color="#1565A7"/>
</linearGradient>
<linearGradient id="paint1_linear_2187_419" x1="313.196" y1="34.7223" x2="313.196" y2="112.5" gradientUnits="userSpaceOnUse">
<stop stop-color="#FFDA4B"/>
<stop offset="1" stop-color="#F9C600"/>
</linearGradient>
<clipPath id="clip0_2187_419">
<rect width="120" height="120" fill="white" transform="translate(480)"/>
</clipPath>
<clipPath id="clip1_2187_419">
<rect width="120" height="120" fill="white" transform="translate(1200)"/>
</clipPath>
<clipPath id="clip2_2187_419">
<rect width="120" height="120" fill="white" transform="translate(1440)"/>
</clipPath>
<clipPath id="clip3_2187_419">
<rect width="120" height="120" fill="white" transform="translate(2640)"/>
</clipPath>
<clipPath id="clip4_2187_419">
<rect width="120" height="120" fill="white" transform="translate(4080)"/>
</clipPath>
</defs>
</svg>
