<svg width="1800" height="120" viewBox="0 0 1800 120" fill="none" xmlns="http://www.w3.org/2000/svg">
<g clip-path="url(#clip0_2108_697)">
<path d="M96 78C88.2 78 81.6 82.8 79.2 90H54C54 85.8 52.8 82.2 51 79.2L93.6 35.4C95.4 35.4 97.2 36 99 36C107.4 36 114 29.4 114 21C114 12.6 107.4 6 99 6C90.6 6 84 12.6 84 21C84 22.8 84.6 25.2 85.2 27L43.2 70.2C39.6 67.2 34.8 66 30 66V40.8C37.2 38.4 42 31.8 42 24C42 13.8 34.2 6 24 6C13.8 6 6 13.8 6 24C6 31.8 10.8 38.4 18 40.8V69C10.8 73.2 6 81 6 89.4C6 102.6 16.8 113.4 30 113.4C39 113.4 46.8 108.6 50.4 101.4H78.6C81 108 87.6 113.4 95.4 113.4C105 113.4 113.4 105.6 113.4 95.4C114 85.8 105.6 78 96 78Z" fill="white"/>
</g>
<path fill-rule="evenodd" clip-rule="evenodd" d="M310.24 13.7348L334.884 27.9635C335.578 27.2285 336.389 26.5795 337.308 26.0454C342.419 23.1072 348.938 24.8517 351.907 29.9629C354.845 35.074 353.101 41.593 347.989 44.5617C347.077 45.0863 346.119 45.4616 345.143 45.6951V74.1638C346.108 74.3978 347.056 74.7707 347.959 75.2898C353.101 78.2585 354.845 84.7775 351.876 89.8886C348.938 94.9998 342.389 96.7443 337.277 93.8062C336.26 93.2212 335.376 92.4931 334.635 91.6617L310.142 105.804C310.492 106.862 310.681 107.993 310.681 109.17C310.681 115.046 305.907 119.852 300 119.852C294.093 119.852 289.318 115.077 289.318 109.17C289.318 108.12 289.469 107.106 289.751 106.148L265.113 91.9231C264.426 92.6437 263.627 93.2806 262.722 93.8062C257.58 96.7443 251.061 94.9998 248.123 89.8886C245.185 84.7775 246.93 78.2585 252.041 75.2898C252.945 74.7703 253.892 74.3972 254.857 74.1632V45.6951C253.881 45.4616 252.923 45.0863 252.01 44.5617C246.899 41.6236 245.155 35.074 248.093 29.9629C251.031 24.8517 257.58 23.1072 262.692 26.0454C263.606 26.5766 264.413 27.2214 265.104 27.9515L289.755 13.7189C289.471 12.7564 289.318 11.737 289.318 10.6814C289.318 4.77447 294.093 0 300 0C305.907 0 310.681 4.77447 310.681 10.6814C310.681 11.7428 310.527 12.7676 310.24 13.7348ZM307.672 18.1187L332.375 32.3813C331.611 35.0632 331.892 38.0369 333.391 40.6442C334.894 43.2601 337.344 44.9941 340.063 45.6699V74.1741C339.924 74.2081 339.786 74.2449 339.649 74.2843L307.385 18.4036C307.483 18.3104 307.578 18.2155 307.672 18.1187ZM292.621 18.41L260.358 74.2899C260.218 74.2493 260.078 74.2117 259.937 74.1769V45.6699C262.656 44.9941 265.105 43.2601 266.609 40.6442C268.111 38.0317 268.389 35.0514 267.62 32.3654L292.316 18.1068C292.416 18.2099 292.517 18.311 292.621 18.41ZM302.984 20.9416L335.24 76.8087C334.518 77.497 333.882 78.299 333.36 79.2073C332.841 80.1102 332.468 81.0581 332.234 82.023H267.766C267.532 81.0587 267.159 80.111 266.64 79.2073C266.116 78.3048 265.481 77.5073 264.762 76.8219L297.024 20.9442C297.969 21.2167 298.967 21.3627 300 21.3627C301.036 21.3627 302.037 21.2158 302.984 20.9416ZM307.899 101.974L332.442 87.8041C332.368 87.5729 332.302 87.3392 332.244 87.1035H267.753C267.718 87.242 267.682 87.3798 267.642 87.5168L292.305 101.756C294.247 99.7411 296.975 98.4888 300 98.4888C303.132 98.4888 305.947 99.8317 307.899 101.974Z" fill="#E535AB"/>
<path d="M540 115.652C570.736 115.652 595.652 90.7358 595.652 60C595.652 29.2641 570.736 4.34778 540 4.34778C509.264 4.34778 484.348 29.2641 484.348 60C484.348 90.7358 509.264 115.652 540 115.652Z" fill="black"/>
<mask id="mask0_2108_697" style="mask-type:luminance" maskUnits="userSpaceOnUse" x="490" y="10" width="100" height="100">
<path d="M540 110C567.614 110 590 87.6142 590 60C590 32.3858 567.614 10 540 10C512.386 10 490 32.3858 490 60C490 87.6142 512.386 110 540 110Z" fill="white"/>
</mask>
<g mask="url(#mask0_2108_697)">
<path d="M499.782 73.6956L503.478 60ZM507.818 39.3684L511.514 25.6728ZM492.376 52.3913L496.072 38.6956ZM511.731 88.0434L515.427 74.3478ZM519.211 110.18L522.907 96.4845ZM534.348 103.55L538.043 89.8541ZM529.186 24.4754L532.882 10.7797ZM555.303 41.9574L558.999 28.2617ZM582.648 70.5854L586.344 56.8897ZM573.288 52.3913L576.983 38.6956ZM549.354 16.2082L553.049 2.51257ZM571.44 23.0561L575.136 9.3604Z" fill="black"/>
<path d="M499.782 73.6956L503.478 60M507.818 39.3684L511.514 25.6728M492.376 52.3913L496.072 38.6956M511.731 88.0434L515.427 74.3478M519.211 110.18L522.907 96.4845M534.348 103.55L538.043 89.8541M529.186 24.4754L532.882 10.7797M555.303 41.9574L558.999 28.2617M582.648 70.5854L586.344 56.8897M573.288 52.3913L576.983 38.6956M549.354 16.2082L553.049 2.51257M571.44 23.0561L575.136 9.3604" stroke="white" stroke-width="2.71739" stroke-linecap="round"/>
</g>
<mask id="mask1_2108_697" style="mask-type:luminance" maskUnits="userSpaceOnUse" x="490" y="10" width="100" height="100">
<path d="M540 110C567.614 110 590 87.6142 590 60C590 32.3858 567.614 10 540 10C512.386 10 490 32.3858 490 60C490 87.6142 512.386 110 540 110Z" fill="white"/>
</mask>
<g mask="url(#mask1_2108_697)">
<path d="M539.18 79.2213C520.343 79.7887 507.75 71.7213 507.75 58.7076C507.75 45.3393 520.865 34.5457 537.826 34.5457C546.018 34.5457 552.942 36.8609 558.346 41.0874C563.103 44.8076 566.503 49.8974 568.242 55.503C568.801 57.3076 573.212 73.7133 581.527 104.915L581.808 105.972L547.071 122.155L546.832 120.402C544.908 106.32 543.235 95.7633 541.815 88.7424C541.111 85.2633 540.472 82.6641 539.904 80.9611C539.637 80.1606 539.392 79.5783 539.186 79.2324C539.184 79.2288 539.182 79.2251 539.18 79.2215V79.2213Z" fill="white" stroke="black" stroke-width="1.30435"/>
</g>
<mask id="mask2_2108_697" style="mask-type:luminance" maskUnits="userSpaceOnUse" x="490" y="10" width="100" height="100">
<path d="M540 110C567.614 110 590 87.6142 590 60C590 32.3858 567.614 10 540 10C512.386 10 490 32.3858 490 60C490 87.6142 512.386 110 540 110Z" fill="white"/>
</mask>
<g mask="url(#mask2_2108_697)">
<path d="M541.304 51.9565C543.225 51.9565 544.783 50.3993 544.783 48.4783C544.783 46.5573 543.225 45 541.304 45C539.383 45 537.826 46.5573 537.826 48.4783C537.826 50.3993 539.383 51.9565 541.304 51.9565Z" fill="black"/>
</g>
<path d="M808.317 74.4711L811.783 65.7048H821.793L817.043 52.4068L822.984 37.3828L840 82.5631H827.451L824.543 74.4711H808.317Z" fill="#3D3D3D"/>
<path d="M797.611 82.5633L815.827 37.3829L803.75 37.383L791.289 66.5795L782.428 37.3831H773.145L763.631 66.5795L756.921 53.2753L750.849 71.9824L757.014 82.5633H768.899L777.497 56.3803L785.694 82.5633H797.611Z" fill="#5A0FC8"/>
<path d="M731.464 67.0535H738.902C741.156 67.0535 743.162 66.802 744.922 66.299L746.846 60.3723L752.222 43.808C751.813 43.1586 751.345 42.5447 750.819 41.9662C748.059 38.9106 744.02 37.3828 738.702 37.3828H720V82.5631H731.464V67.0535ZM741.31 47.777C742.388 48.8622 742.927 50.3144 742.927 52.1338C742.927 53.9671 742.453 55.4211 741.505 56.4959C740.465 57.69 738.551 58.2871 735.763 58.2871H731.464V46.1491H735.794C738.393 46.1491 740.232 46.6917 741.31 47.777Z" fill="#3D3D3D"/>
<path d="M1054.85 55.966L1052.37 54.9703C1040.66 81.2972 994.119 65.2917 991.318 73.1236C990.851 78.4139 1016.74 74.1296 1035.24 75.0263C1040.89 75.2996 1043.72 79.5596 1041.32 86.5032L1046.04 86.5177C1051.48 69.5447 1068.86 78.2067 1069.59 72.6052C1068.39 68.9222 1049.62 72.6052 1054.85 55.966Z" fill="white"/>
<path d="M1042.66 83.601C1043.4 81.1114 1043.15 78.6219 1041.91 77.128C1040.66 75.6341 1038.92 74.6385 1036.68 74.3896L993.361 73.8913C993.112 73.8913 992.863 73.6424 992.614 73.6424C992.365 73.3935 992.365 73.1446 992.614 72.8957C992.863 72.3978 993.112 72.1485 993.61 72.1485L1037.18 71.6507C1042.41 71.4018 1047.88 67.1694 1049.88 62.1903L1052.37 55.7174C1052.37 55.468 1052.61 55.2191 1052.37 54.9702C1049.63 42.2732 1038.17 32.8124 1024.73 32.8124C1012.28 32.8124 1001.58 40.7793 997.842 51.9828C995.353 50.24 992.365 49.2439 988.88 49.4933C982.905 49.9911 978.174 54.9702 977.427 60.9453C977.178 62.4393 977.427 63.9332 977.677 65.4266C967.967 65.6755 960 73.6424 960 83.601C960 84.5966 960 85.3438 960.249 86.3394C960.249 86.8377 960.747 87.0866 960.996 87.0866H1040.91C1041.41 87.0866 1041.91 86.8377 1041.91 86.3394L1042.66 83.601Z" fill="#F4811F"/>
<path d="M1056.35 55.717H1055.1C1054.85 55.717 1054.61 55.9659 1054.36 56.2149L1052.61 62.19C1051.87 64.6795 1052.12 67.1695 1053.36 68.663C1054.61 70.1569 1056.35 71.1525 1058.59 71.4019L1067.8 71.8997C1068.05 71.8997 1068.3 72.1486 1068.55 72.1486C1068.8 72.3975 1068.8 72.6464 1068.55 72.8953C1068.3 73.3936 1068.05 73.6425 1067.55 73.6425L1058.09 74.1403C1052.86 74.3892 1047.39 78.6216 1045.39 83.6006L1044.9 85.8417C1044.65 86.0906 1044.9 86.5884 1045.39 86.5884H1078.26C1078.76 86.5884 1079 86.3395 1079 85.8417C1079.5 83.85 1080 81.6094 1080 79.3683C1080 66.4224 1069.29 55.717 1056.35 55.717Z" fill="#FAAD3F"/>
<path d="M1260 5L1320 110H1200L1260 5Z" fill="white"/>
<g clip-path="url(#clip1_2108_697)">
<path d="M1532.56 34.02L1533.69 32.3175L1535.65 33.51L1536.52 34.1325C1538.62 35.7525 1543.04 39.8925 1543.99 46.7625C1545.67 46.4625 1547.35 46.3125 1549.04 46.3125C1553.05 46.3125 1555.74 47.2425 1557.27 48.015L1558.06 48.4425L1558.57 48.78L1560 49.95L1559.5 51.45C1558.74 53.5064 1557.53 55.3735 1555.98 56.925C1553.8 59.1675 1549.98 61.815 1543.91 62.16L1542.58 62.1975H1541.47C1538.69 69.525 1534.96 77.7825 1528.7 85.1925C1524.99 89.5958 1520.58 93.365 1515.65 96.3525C1509.75 99.8566 1503.28 102.313 1496.53 103.612C1491.7 104.55 1486.8 105.015 1481.89 105C1471.01 105 1461.41 102.84 1455.51 99.06C1450.24 95.6925 1446.19 90.195 1443.46 82.7325C1441.08 75.9135 1439.91 68.7301 1440.01 61.5075C1439.99 60.5815 1440.32 59.6817 1440.91 58.9716C1441.5 58.2615 1442.33 57.7882 1443.25 57.6375L1443.76 57.6H1522.81L1523.5 57.5475L1524.61 57.4275C1526.53 57.1725 1529.46 56.6025 1531.51 55.4025C1529.05 51.33 1528.36 46.5675 1529.5 41.4975C1529.99 39.3827 1530.74 37.3402 1531.75 35.4225L1532.56 34.02ZM1461.67 43.38L1461.97 43.4325C1462.11 43.4838 1462.24 43.5659 1462.34 43.6726C1462.44 43.7792 1462.51 43.9075 1462.55 44.0475L1462.6 44.3475V54.21L1462.55 54.5175C1462.51 54.6583 1462.43 54.7871 1462.33 54.8938C1462.23 55.0005 1462.11 55.0822 1461.97 55.1325L1461.67 55.1775H1451.08C1450.89 55.1749 1450.7 55.1095 1450.54 54.9908C1450.38 54.8722 1450.26 54.7064 1450.21 54.5175L1450.15 54.2175V44.34L1450.21 44.04C1450.25 43.8979 1450.32 43.7676 1450.43 43.6595C1450.53 43.5514 1450.65 43.4686 1450.79 43.4175L1451.08 43.3725L1461.67 43.38ZM1476.28 43.38L1476.57 43.4325C1476.71 43.4828 1476.83 43.5645 1476.93 43.6712C1477.04 43.7779 1477.11 43.9067 1477.15 44.0475L1477.2 44.3475V54.21L1477.15 54.5175C1477.1 54.6583 1477.03 54.7871 1476.93 54.8938C1476.83 55.0005 1476.7 55.0822 1476.56 55.1325L1476.27 55.1775H1465.68C1465.48 55.1737 1465.29 55.1079 1465.13 54.9894C1464.98 54.8709 1464.86 54.7058 1464.8 54.5175L1464.75 54.225V44.3475C1464.75 44.1468 1464.81 43.9505 1464.92 43.7854C1465.04 43.6203 1465.2 43.4945 1465.39 43.425L1465.68 43.3725L1476.28 43.38ZM1491.1 43.38L1491.39 43.4325C1491.53 43.4838 1491.65 43.5659 1491.75 43.6726C1491.85 43.7792 1491.92 43.9075 1491.97 44.0475L1492.02 44.3475V54.21L1491.97 54.5175C1491.92 54.6583 1491.85 54.7871 1491.75 54.8938C1491.65 55.0005 1491.52 55.0822 1491.38 55.1325L1491.09 55.1775H1480.5C1480.3 55.1749 1480.11 55.1095 1479.95 54.9908C1479.8 54.8722 1479.68 54.7064 1479.62 54.5175L1479.58 54.2175V44.34L1479.62 44.04C1479.66 43.8979 1479.74 43.7676 1479.84 43.6595C1479.94 43.5514 1480.07 43.4686 1480.21 43.4175L1480.5 43.3725L1491.1 43.38ZM1505.74 43.38L1506.03 43.4325C1506.17 43.4828 1506.29 43.5645 1506.39 43.6712C1506.5 43.7779 1506.57 43.9067 1506.61 44.0475L1506.67 44.3475V54.21C1506.67 54.4107 1506.61 54.607 1506.49 54.7721C1506.38 54.9372 1506.22 55.063 1506.03 55.1325L1505.73 55.1775H1495.15C1494.95 55.1749 1494.76 55.1095 1494.6 54.9908C1494.44 54.8722 1494.33 54.7064 1494.27 54.5175L1494.22 54.2175V44.34L1494.27 44.04C1494.31 43.8979 1494.39 43.7676 1494.49 43.6595C1494.59 43.5514 1494.72 43.4686 1494.85 43.4175L1495.15 43.3725H1505.74L1505.74 43.38ZM1520.51 43.38L1520.8 43.4325C1520.94 43.4828 1521.07 43.5645 1521.17 43.6712C1521.27 43.7779 1521.35 43.9067 1521.39 44.0475L1521.43 44.3475V54.21C1521.44 54.4107 1521.38 54.607 1521.26 54.7721C1521.15 54.9372 1520.99 55.063 1520.8 55.1325L1520.5 55.1775H1509.91C1509.72 55.1749 1509.53 55.1095 1509.37 54.9908C1509.21 54.8722 1509.09 54.7064 1509.04 54.5175L1508.99 54.2175V44.34L1509.04 44.04C1509.08 43.8979 1509.15 43.7676 1509.26 43.6595C1509.36 43.5514 1509.48 43.4686 1509.62 43.4175L1509.92 43.3725H1520.5L1520.51 43.38ZM1476.26 29.19L1476.56 29.2425C1476.7 29.293 1476.82 29.374 1476.92 29.4793C1477.02 29.5846 1477.1 29.7114 1477.14 29.85L1477.19 30.1575V40.02C1477.19 40.2207 1477.13 40.417 1477.02 40.5821C1476.91 40.7472 1476.74 40.873 1476.55 40.9425L1476.26 40.995H1465.68C1465.48 40.9902 1465.29 40.9222 1465.13 40.8009C1464.97 40.6795 1464.86 40.5111 1464.8 40.32L1464.75 40.02V30.1575C1464.75 29.9581 1464.81 29.7635 1464.92 29.5999C1465.04 29.4362 1465.2 29.3115 1465.39 29.2425L1465.68 29.19H1476.26ZM1491.08 29.19L1491.38 29.2425C1491.52 29.293 1491.64 29.374 1491.74 29.4793C1491.84 29.5846 1491.92 29.7114 1491.96 29.85L1492.01 30.1575V40.02C1492.01 40.2207 1491.95 40.417 1491.84 40.5821C1491.73 40.7472 1491.56 40.873 1491.37 40.9425L1491.08 40.995H1480.5C1480.3 40.9902 1480.11 40.9222 1479.95 40.8009C1479.79 40.6795 1479.68 40.5111 1479.62 40.32L1479.58 40.02V30.1575L1479.62 29.8575C1479.67 29.7167 1479.74 29.5879 1479.84 29.4812C1479.94 29.3745 1480.07 29.2928 1480.21 29.2425L1480.5 29.19H1491.08ZM1505.73 29.19C1506.13 29.19 1506.48 29.4675 1506.61 29.85L1506.66 30.1575V40.02C1506.66 40.2207 1506.6 40.417 1506.49 40.5821C1506.37 40.7472 1506.21 40.873 1506.02 40.9425L1505.72 40.995H1495.15C1494.95 40.9902 1494.76 40.9222 1494.6 40.8009C1494.44 40.6795 1494.33 40.5111 1494.27 40.32L1494.22 40.02V30.1575L1494.27 29.8575C1494.31 29.7167 1494.39 29.5879 1494.49 29.4812C1494.59 29.3745 1494.72 29.2928 1494.85 29.2425L1495.15 29.19H1505.74H1505.73ZM1505.73 15C1506.13 15 1506.48 15.2775 1506.61 15.66L1506.66 15.96V25.83C1506.66 26.0307 1506.6 26.227 1506.49 26.3921C1506.37 26.5572 1506.21 26.683 1506.02 26.7525L1505.72 26.7975H1495.15C1494.95 26.7949 1494.76 26.7295 1494.6 26.6108C1494.44 26.4922 1494.33 26.3264 1494.27 26.1375L1494.22 25.8375V15.96L1494.27 15.66C1494.31 15.5192 1494.39 15.3904 1494.49 15.2837C1494.59 15.177 1494.72 15.0953 1494.85 15.045L1495.15 15H1505.74H1505.73Z" fill="#2396ED"/>
</g>
<path d="M1744.12 59.9999C1744.12 50.3324 1751.77 42.5024 1761.19 42.5024C1770.61 42.5024 1778.25 50.3249 1778.25 59.9999C1778.25 69.6674 1770.61 77.4974 1761.19 77.4974C1751.77 77.4974 1744.12 69.6749 1744.12 59.9999Z" fill="#1ABCFE"/>
<path d="M1710 95.0026C1710 85.3351 1717.64 77.4976 1727.06 77.4976H1744.12V95.0026C1744.12 104.663 1736.48 112.5 1727.06 112.5C1717.64 112.5 1710 104.663 1710 95.0026Z" fill="#0ACF83"/>
<path d="M1744.12 7.5V42.5025H1761.19C1770.61 42.5025 1778.25 34.665 1778.25 24.9975C1778.25 15.3375 1770.61 7.5 1761.19 7.5H1744.12Z" fill="#FF7262"/>
<path d="M1710 24.9975C1710 34.665 1717.64 42.5025 1727.06 42.5025H1744.12V7.5H1727.06C1717.64 7.5 1710 15.3375 1710 24.9975Z" fill="#F24E1E"/>
<path d="M1710 59.9999C1710 69.6674 1717.64 77.4974 1727.06 77.4974H1744.12V42.5024H1727.06C1717.64 42.5024 1710 50.3249 1710 59.9999Z" fill="#A259FF"/>
<defs>
<clipPath id="clip0_2108_697">
<rect width="120" height="120" fill="white"/>
</clipPath>
<clipPath id="clip1_2108_697">
<rect width="120" height="120" fill="white" transform="translate(1440)"/>
</clipPath>
</defs>
</svg>
